<svg xmlns="http://www.w3.org/2000/svg" xmlns:svg="http://www.w3.org/2000/svg" id="Layer_1" width="70.979" height="100.467" x="0" y="0" enable-background="new 0 0 115.333 114" version="1.1" viewBox="0 0 70.979 100.467" xml:space="preserve"><metadata id="metadata4509"/><path id="path5275" fill="#e6522c" fill-opacity="1" stroke-width=".937" d="m 35.959035,0.5 c -3.434,0.207 -6.867188,6.2587496 -6.867188,11.46875 0,5.032 -1.361281,13.238422 -4.613281,17.732422 -0.221,-9.705 -3.493734,-15.911156 -6.552734,-16.160156 3.143,8.023 -5.56836,17.947641 -5.56836,29.306641 0,5.174 2.017063,10.23675 5.414063,14.21875 -3.538,-0.645 -5.958985,-1.205078 -5.958985,-1.205078 -4.7030002,-1.058 -11.33350028,-2.530063 -11.31250024,-2.414063 1.24700004,3.522 2.53042204,6.979609 7.98242204,13.599609 0.17,0.206 0.349391,0.404422 0.525391,0.607422 H 61.927785 c 6.785,-6.993 8.551781,-14.254906 8.550781,-14.253906 l -12.152344,2.371094 c 0,0 -2.584172,0.633937 -6.326172,1.335937 3.291,-3.889 5.242188,-8.864437 5.242188,-14.148437 0,-7.881 -1.920891,-12.046875 -5.087891,-17.546875 -1.963,-3.409 -4.832031,-10.500969 -2.332031,-16.1679694 -5.667,4.5000004 -7.20225,17.5337974 -7.53125,26.4667974 -0.992,-4.301 -0.828281,-11.083281 -2.113281,-15.113281 C 36.751785,9.868657 32.898035,5.5449996 35.959035,0.5 Z M 8.8555188,72.626953 v 9.65625 h 53.2636722 0.002 v -9.65625 z M 19.367238,86.683594 c 0,7.334997 7.219047,13.283206 16.123047,13.283206 8.904,0 16.121093,-5.949209 16.121093,-13.283206 z" mask="none" opacity=".997"/></svg>